<svg xmlns="http://www.w3.org/2000/svg" style="cursor: move;" width="1920" height="928"><g transform="translate(-22,-23) scale(1)"><line class="link" style="stroke-width: 0.5; stroke-opacity: 1; stroke: rgb(80, 80, 80);" x1="800" y1="434" x2="980" y2="274"></line><line class="link" style="stroke-width: 0.5; stroke-opacity: 1; stroke: rgb(80, 80, 80);" x1="800" y1="434" x2="980" y2="314"></line><line class="link" style="stroke-width: 0.5; stroke-opacity: 1; stroke: rgb(80, 80, 80);" x1="800" y1="434" x2="980" y2="354"></line><line class="link" style="stroke-width: 0.5; stroke-opacity: 1; stroke: rgb(80, 80, 80);" x1="800" y1="434" x2="980" y2="394"></line><line class="link" style="stroke-width: 0.5; stroke-opacity: 1; stroke: rgb(80, 80, 80);" x1="800" y1="434" x2="980" y2="434"></line><line class="link" style="stroke-width: 0.5; stroke-opacity: 1; stroke: rgb(80, 80, 80);" x1="800" y1="434" x2="980" y2="474"></line><line class="link" style="stroke-width: 0.5; stroke-opacity: 1; stroke: rgb(80, 80, 80);" x1="800" y1="434" x2="980" y2="514"></line><line class="link" style="stroke-width: 0.5; stroke-opacity: 1; stroke: rgb(80, 80, 80);" x1="800" y1="434" x2="980" y2="554"></line><line class="link" style="stroke-width: 0.5; stroke-opacity: 1; stroke: rgb(80, 80, 80);" x1="800" y1="434" x2="980" y2="594"></line><line class="link" style="stroke-width: 0.5; stroke-opacity: 1; stroke: rgb(80, 80, 80);" x1="800" y1="434" x2="980" y2="634"></line><line class="link" style="stroke-width: 0.5; stroke-opacity: 1; stroke: rgb(80, 80, 80);" x1="800" y1="474" x2="980" y2="274"></line><line class="link" style="stroke-width: 0.5; stroke-opacity: 1; stroke: rgb(80, 80, 80);" x1="800" y1="474" x2="980" y2="314"></line><line class="link" style="stroke-width: 0.5; stroke-opacity: 1; stroke: rgb(80, 80, 80);" x1="800" y1="474" x2="980" y2="354"></line><line class="link" style="stroke-width: 0.5; stroke-opacity: 1; stroke: rgb(80, 80, 80);" x1="800" y1="474" x2="980" y2="394"></line><line class="link" style="stroke-width: 0.5; stroke-opacity: 1; stroke: rgb(80, 80, 80);" x1="800" y1="474" x2="980" y2="434"></line><line class="link" style="stroke-width: 0.5; stroke-opacity: 1; stroke: rgb(80, 80, 80);" x1="800" y1="474" x2="980" y2="474"></line><line class="link" style="stroke-width: 0.5; stroke-opacity: 1; stroke: rgb(80, 80, 80);" x1="800" y1="474" x2="980" y2="514"></line><line class="link" style="stroke-width: 0.5; stroke-opacity: 1; stroke: rgb(80, 80, 80);" x1="800" y1="474" x2="980" y2="554"></line><line class="link" style="stroke-width: 0.5; stroke-opacity: 1; stroke: rgb(80, 80, 80);" x1="800" y1="474" x2="980" y2="594"></line><line class="link" style="stroke-width: 0.5; stroke-opacity: 1; stroke: rgb(80, 80, 80);" x1="800" y1="474" x2="980" y2="634"></line><line class="link" style="stroke-width: 0.5; stroke-opacity: 1; stroke: rgb(80, 80, 80);" x1="980" y1="274" x2="1160" y2="434"></line><line class="link" style="stroke-width: 0.5; stroke-opacity: 1; stroke: rgb(80, 80, 80);" x1="980" y1="274" x2="1160" y2="474"></line><line class="link" style="stroke-width: 0.5; stroke-opacity: 1; stroke: rgb(80, 80, 80);" x1="980" y1="314" x2="1160" y2="434"></line><line class="link" style="stroke-width: 0.5; stroke-opacity: 1; stroke: rgb(80, 80, 80);" x1="980" y1="314" x2="1160" y2="474"></line><line class="link" style="stroke-width: 0.5; stroke-opacity: 1; stroke: rgb(80, 80, 80);" x1="980" y1="354" x2="1160" y2="434"></line><line class="link" style="stroke-width: 0.5; stroke-opacity: 1; stroke: rgb(80, 80, 80);" x1="980" y1="354" x2="1160" y2="474"></line><line class="link" style="stroke-width: 0.5; stroke-opacity: 1; stroke: rgb(80, 80, 80);" x1="980" y1="394" x2="1160" y2="434"></line><line class="link" style="stroke-width: 0.5; stroke-opacity: 1; stroke: rgb(80, 80, 80);" x1="980" y1="394" x2="1160" y2="474"></line><line class="link" style="stroke-width: 0.5; stroke-opacity: 1; stroke: rgb(80, 80, 80);" x1="980" y1="434" x2="1160" y2="434"></line><line class="link" style="stroke-width: 0.5; stroke-opacity: 1; stroke: rgb(80, 80, 80);" x1="980" y1="434" x2="1160" y2="474"></line><line class="link" style="stroke-width: 0.5; stroke-opacity: 1; stroke: rgb(80, 80, 80);" x1="980" y1="474" x2="1160" y2="434"></line><line class="link" style="stroke-width: 0.5; stroke-opacity: 1; stroke: rgb(80, 80, 80);" x1="980" y1="474" x2="1160" y2="474"></line><line class="link" style="stroke-width: 0.5; stroke-opacity: 1; stroke: rgb(80, 80, 80);" x1="980" y1="514" x2="1160" y2="434"></line><line class="link" style="stroke-width: 0.5; stroke-opacity: 1; stroke: rgb(80, 80, 80);" x1="980" y1="514" x2="1160" y2="474"></line><line class="link" style="stroke-width: 0.5; stroke-opacity: 1; stroke: rgb(80, 80, 80);" x1="980" y1="554" x2="1160" y2="434"></line><line class="link" style="stroke-width: 0.5; stroke-opacity: 1; stroke: rgb(80, 80, 80);" x1="980" y1="554" x2="1160" y2="474"></line><line class="link" style="stroke-width: 0.5; stroke-opacity: 1; stroke: rgb(80, 80, 80);" x1="980" y1="594" x2="1160" y2="434"></line><line class="link" style="stroke-width: 0.5; stroke-opacity: 1; stroke: rgb(80, 80, 80);" x1="980" y1="594" x2="1160" y2="474"></line><line class="link" style="stroke-width: 0.5; stroke-opacity: 1; stroke: rgb(80, 80, 80);" x1="980" y1="634" x2="1160" y2="434"></line><line class="link" style="stroke-width: 0.5; stroke-opacity: 1; stroke: rgb(80, 80, 80);" x1="980" y1="634" x2="1160" y2="474"></line><circle r="10" class="node" id="0_0" style="fill: rgb(255, 255, 255); stroke: rgb(51, 51, 51);" cx="800" cy="434"></circle><circle r="10" class="node" id="0_1" style="fill: rgb(255, 255, 255); stroke: rgb(51, 51, 51);" cx="800" cy="474"></circle><circle r="10" class="node" id="0_2" style="fill: rgb(255, 255, 255); stroke: rgb(51, 51, 51);" cx="980" cy="274"></circle><circle r="10" class="node" id="0_3" style="fill: rgb(255, 255, 255); stroke: rgb(51, 51, 51);" cx="980" cy="314"></circle><circle r="10" class="node" id="0_4" style="fill: rgb(255, 255, 255); stroke: rgb(51, 51, 51);" cx="980" cy="354"></circle><circle r="10" class="node" id="0_5" style="fill: rgb(255, 255, 255); stroke: rgb(51, 51, 51);" cx="980" cy="394"></circle><circle r="10" class="node" id="0_6" style="fill: rgb(255, 255, 255); stroke: rgb(51, 51, 51);" cx="980" cy="434"></circle><circle r="10" class="node" id="0_7" style="fill: rgb(255, 255, 255); stroke: rgb(51, 51, 51);" cx="980" cy="474"></circle><circle r="10" class="node" id="0_8" style="fill: rgb(255, 255, 255); stroke: rgb(51, 51, 51);" cx="980" cy="514"></circle><circle r="10" class="node" id="0_9" style="fill: rgb(255, 255, 255); stroke: rgb(51, 51, 51);" cx="980" cy="554"></circle><circle r="10" class="node" id="0_10" style="fill: rgb(255, 255, 255); stroke: rgb(51, 51, 51);" cx="980" cy="594"></circle><circle r="10" class="node" id="0_11" style="fill: rgb(255, 255, 255); stroke: rgb(51, 51, 51);" cx="980" cy="634"></circle><circle r="10" class="node" id="0_12" style="fill: rgb(255, 255, 255); stroke: rgb(51, 51, 51);" cx="1160" cy="434"></circle><text class="text" dy=".35em" style="font-size: 12px;" x="765" y="674">Input Layer ∈ ℝ²</text><text class="text" dy=".35em" style="font-size: 12px;" x="945" y="674">Hidden Layer ∈ ℝ¹⁰</text><text class="text" dy=".35em" style="font-size: 12px;" x="1125" y="674">Output Layer ∈ ℝ²</text><text class="text" dy=".35em" style="font-size: 12px;" x="1251.6666666666667" y="794">Output Layer ∈ ℝ¹</text><circle r="10" class="node" id="2_1" style="fill: rgb(255, 255, 255); stroke: rgb(51, 51, 51);" cx="1160" cy="474"></circle></g></svg>